<svg width="30" height="24" viewBox="0 0 30 24" fill="none" xmlns="http://www.w3.org/2000/svg">
<path fill-rule="evenodd" clip-rule="evenodd" d="M0.625 2.41656C0.625 1.53444 1.34011 0.819336 2.22222 0.819336H27.7778C28.6599 0.819336 29.375 1.53444 29.375 2.41656C29.375 3.29867 28.6599 4.01378 27.7778 4.01378H2.22222C1.34011 4.01378 0.625 3.29867 0.625 2.41656ZM0.625 11.9999C0.625 11.1177 1.34011 10.4027 2.22222 10.4027H27.7778C28.6599 10.4027 29.375 11.1177 29.375 11.9999C29.375 12.882 28.6599 13.5971 27.7778 13.5971H2.22222C1.34011 13.5971 0.625 12.882 0.625 11.9999ZM0.625 21.5832C0.625 20.7011 1.34011 19.986 2.22222 19.986H27.7778C28.6599 19.986 29.375 20.7011 29.375 21.5832C29.375 22.4654 28.6599 23.1804 27.7778 23.1804H2.22222C1.34011 23.1804 0.625 22.4654 0.625 21.5832Z" fill="black"/>
</svg>
