<svg width="30" height="29" viewBox="0 0 30 29" fill="none" xmlns="http://www.w3.org/2000/svg">
<path d="M29.1721 4.3516H24.6399V1.58151C24.6399 1.16426 24.3018 0.826172 23.8846 0.826172C23.4673 0.826172 23.1292 1.16426 23.1292 1.58151V4.3516H7.01568V1.58151C7.01568 1.16426 6.67749 0.826172 6.26034 0.826172C5.84309 0.826172 5.505 1.16426 5.505 1.58151V4.3516H0.972748C0.555498 4.3516 0.217407 4.68969 0.217407 5.10694V28.0237C0.217407 28.4408 0.555498 28.779 0.972748 28.779H29.1721C29.5894 28.779 29.9275 28.4408 29.9275 28.0237V5.10694C29.9275 4.68969 29.5894 4.3516 29.1721 4.3516ZM17.1369 13.0739V16.6916H13.0079V13.0739H17.1369ZM28.4168 16.6915H24.2874V13.0738H28.4168V16.6915ZM22.7767 16.6915H18.6476V13.0738H22.7767V16.6915ZM13.0079 18.2021H17.1369V21.8193H13.0079V18.2021ZM13.0079 23.33H17.1369V27.2683H13.0079V23.33ZM18.6476 23.33H22.7767V27.2683H18.6476V23.33ZM18.6476 21.8193V18.2021H22.7767V21.8193H18.6476ZM24.2874 18.2021H28.4168V21.8193H24.2874V18.2021ZM5.505 5.86228V8.63277C5.505 9.05002 5.84309 9.38811 6.26034 9.38811C6.67749 9.38811 7.01568 9.05002 7.01568 8.63277V5.86228H23.1292V8.63277C23.1292 9.05002 23.4673 9.38811 23.8846 9.38811C24.3018 9.38811 24.6399 9.05002 24.6399 8.63277V5.86228H28.4168V11.5632H1.72809V5.86228H5.505ZM1.72809 13.0739H11.4973V27.2683H1.72809V13.0739ZM24.2874 27.2683V23.33H28.4168V27.2683H24.2874Z" fill="black"/>
</svg>
