<svg width="46" height="46" viewBox="0 0 46 46" fill="none" xmlns="http://www.w3.org/2000/svg">
<path d="M23 41.2615C26.7418 41.63 30.5736 41.6709 33.9902 40.1012C37.6995 38.3971 41.3684 35.8733 42.9337 32.1034C44.485 28.3674 43.462 24.0899 42.2396 20.2338C41.1504 16.7978 38.5546 14.2813 36.3741 11.4112C34.0245 8.31844 32.4142 4.49402 28.949 2.73961C25.2001 0.841621 20.666 0.142137 16.6677 1.43411C12.7042 2.71479 9.69281 6.05036 7.58499 9.64283C5.68418 12.8825 5.95919 16.7558 5.49127 20.4826C5.03286 24.1337 3.37187 27.9187 4.86831 31.2804C6.36764 34.6487 10.0881 36.2875 13.318 38.0654C16.3569 39.7383 19.5478 40.9216 23 41.2615Z" fill="#FFE4A8"/>
<path d="M12.1395 37.6949C11.4368 37.6949 10.8618 37.12 10.8618 36.4172V8.43541L10.223 8.30762C9.52021 8.30762 8.94525 8.88258 8.94525 9.58534V40.2504C8.94525 40.9531 9.52021 41.5281 10.223 41.5281H32.5829C33.2856 41.5281 33.8606 40.9531 33.8606 40.2504V38.3338L33.7967 37.695H12.1395V37.6949Z" fill="white"/>
<path d="M8.94529 40.2504V9.58534C8.94529 8.88258 9.52025 8.30762 10.223 8.30762H8.30647C7.60371 8.30762 7.02875 8.88258 7.02875 9.58534V40.2504C7.02875 40.9531 7.60371 41.5281 8.30647 41.5281H10.223C9.52025 41.5281 8.94529 40.9531 8.94529 40.2504Z" fill="#FFE4A8"/>
<path d="M37.6937 12.1407H31.3052C30.6024 12.1407 30.0275 11.5657 30.0275 10.863V4.47437L37.6937 12.1407Z" fill="white"/>
<path d="M35.7771 12.1407H31.3052C30.6024 12.1407 30.0274 11.5657 30.0274 10.863V4.47437H12.1395C11.4368 4.47437 10.8618 5.04933 10.8618 5.75208V36.4172C10.8618 37.1199 11.4368 37.6949 12.1395 37.6949H34.4994C35.2022 37.6949 35.7771 37.1199 35.7771 36.4172V12.1407Z" fill="#FFE4A8"/>
<path d="M35.7771 12.1409V36.4174C35.7771 37.1201 35.2021 37.6951 34.4994 37.6951H36.4159C37.1187 37.6951 37.6936 37.1201 37.6936 36.4174V12.1409H35.7771Z" fill="white"/>
<path d="M30.6663 3.83569H29.3886L30.0274 10.8631C30.0274 11.5659 30.6024 12.1408 31.3052 12.1408H37.6937V36.4173C37.6937 37.1201 37.1187 37.695 36.4159 37.695H38.3325C39.0352 37.695 39.6102 37.1201 39.6102 36.4173V12.1408L30.6663 3.83569Z" fill="#FFE4A8"/>
<path d="M37.6937 12.7796H31.3052C30.2191 12.7796 29.3886 11.9491 29.3886 10.863V4.47445C29.3886 4.21893 29.5164 3.96334 29.7719 3.89948C30.0274 3.77169 30.283 3.83563 30.4747 4.02728L38.1409 11.6935C38.3326 11.8852 38.3964 12.1407 38.2687 12.3963C38.2048 12.6519 37.9493 12.7796 37.6937 12.7796ZM30.6663 6.00775V10.863C30.6663 11.2463 30.9218 11.5019 31.3052 11.5019H36.1604L30.6663 6.00775Z" fill="black"/>
<path d="M36.416 38.3339H12.1395C11.0534 38.3339 10.223 37.5034 10.223 36.4173V5.75223C10.223 4.66617 11.0534 3.83569 12.1395 3.83569H30.0274C30.4107 3.83569 30.6662 4.09121 30.6662 4.47451V10.863C30.6662 11.2463 30.9217 11.5019 31.3051 11.5019H37.6936C38.0769 11.5019 38.3324 11.7574 38.3324 12.1407V19.8071C38.3324 20.1904 38.0769 20.4459 37.6936 20.4459C37.3103 20.4459 37.0547 20.1904 37.0547 19.8071V12.7796H31.3051C30.219 12.7796 29.3885 11.9492 29.3885 10.8631V5.11341H12.1395C11.7562 5.11341 11.5007 5.43286 11.5007 5.75223V36.4173C11.5007 36.8006 11.7562 37.0562 12.1395 37.0562H36.416C36.7993 37.0562 37.0548 36.8006 37.0548 36.4173V24.9179C37.0548 24.5346 37.3103 24.2791 37.6936 24.2791C38.077 24.2791 38.3325 24.5346 38.3325 24.9179V36.4173C38.3325 37.5033 37.502 38.3339 36.416 38.3339Z" fill="black"/>
<path d="M38.3326 22.3625C38.3326 21.9791 38.0771 21.7236 37.6938 21.7236C37.3104 21.7236 37.0549 21.9791 37.0549 22.3625C37.0549 22.7458 37.3104 23.0013 37.6938 23.0013C38.077 23.0013 38.3326 22.7458 38.3326 22.3625Z" fill="black"/>
<path d="M32.5829 42.1669H8.30637C7.22031 42.1669 6.38983 41.3364 6.38983 40.2503V9.58524C6.38983 8.49918 7.22031 7.6687 8.30637 7.6687H10.2229C10.2868 7.6687 10.2868 7.6687 10.3507 7.6687L10.9895 7.7965C11.309 7.86036 11.5006 8.11594 11.5006 8.43532V36.4172C11.5006 36.8005 11.7561 37.056 12.1395 37.056H33.7967C34.1161 37.056 34.3716 37.3115 34.4355 37.631L34.4993 38.2698V38.3336V40.2502C34.4994 41.3363 33.6689 42.1669 32.5829 42.1669ZM8.30637 8.94642C7.92306 8.94642 7.66755 9.26587 7.66755 9.58524V40.2503C7.66755 40.6336 7.92306 40.8891 8.30637 40.8891H32.5829C32.9662 40.8891 33.2217 40.6336 33.2217 40.2503V38.3337H12.1395C11.0535 38.3337 10.223 37.5032 10.223 36.4172V8.94642H10.1591H8.30637Z" fill="black"/>
<path d="M26.8332 12.7796H15.3338C14.9505 12.7796 14.6949 12.5241 14.6949 12.1408C14.6949 11.7575 14.9505 11.502 15.3338 11.502H26.8332C27.2165 11.502 27.472 11.7575 27.472 12.1408C27.472 12.5241 27.2165 12.7796 26.8332 12.7796Z" fill="black"/>
<path d="M34.4994 16.6128H15.3338C14.9505 16.6128 14.6949 16.3573 14.6949 15.974C14.6949 15.5907 14.9505 15.3352 15.3338 15.3352H34.4994C34.8827 15.3352 35.1382 15.5907 35.1382 15.974C35.1383 16.3573 34.8827 16.6128 34.4994 16.6128Z" fill="black"/>
<path d="M34.4994 20.4459H15.3338C14.9505 20.4459 14.6949 20.1903 14.6949 19.807C14.6949 19.4237 14.9505 19.1682 15.3338 19.1682H34.4994C34.8827 19.1682 35.1382 19.4237 35.1382 19.807C35.1383 20.1903 34.8827 20.4459 34.4994 20.4459Z" fill="black"/>
<path d="M34.4994 24.2789H15.3338C14.9505 24.2789 14.6949 24.0233 14.6949 23.64C14.6949 23.2567 14.9505 23.0012 15.3338 23.0012H34.4994C34.8827 23.0012 35.1382 23.2567 35.1382 23.64C35.1382 24.0233 34.8827 24.2789 34.4994 24.2789Z" fill="black"/>
<path d="M34.4994 28.1121H15.3338C14.9505 28.1121 14.6949 27.8566 14.6949 27.4733C14.6949 27.09 14.9505 26.8345 15.3338 26.8345H34.4994C34.8827 26.8345 35.1382 27.09 35.1382 27.4733C35.1382 27.8566 34.8827 28.1121 34.4994 28.1121Z" fill="black"/>
<path d="M34.4994 31.9451H15.3338C14.9505 31.9451 14.6949 31.6896 14.6949 31.3063C14.6949 30.923 14.9505 30.6675 15.3338 30.6675H34.4994C34.8827 30.6675 35.1382 30.923 35.1382 31.3063C35.1383 31.6896 34.8827 31.9451 34.4994 31.9451Z" fill="black"/>
</svg>
