<svg width="46" height="46" viewBox="0 0 46 46" fill="none" xmlns="http://www.w3.org/2000/svg">
<g clip-path="url(#clip0_60_2904)">
<path d="M21.782 44.0626C25.6303 44.3829 29.3288 42.5276 32.4974 40.3204C35.5884 38.1673 37.5571 34.9681 39.4848 31.7316C41.6324 28.1258 44.8061 24.574 44.3615 20.4006C43.9149 16.2082 40.1347 13.3145 37.2003 10.287C34.4166 7.41498 31.5422 4.58735 27.7635 3.27604C23.8719 1.92554 19.5541 1.4565 15.6648 2.81358C11.8573 4.14211 8.94211 7.23456 6.73885 10.6121C4.72019 13.7066 4.44885 17.4257 3.76435 21.0565C3.04629 24.8653 0.962552 28.8947 2.63269 32.3923C4.30133 35.8867 8.84804 36.6122 12.1547 38.6274C15.3666 40.5849 18.0336 43.7507 21.782 44.0626Z" fill="#FFE4A8"/>
<path d="M18.9318 30.1818V29.9773C18.9545 27.8068 19.1818 26.0795 19.6136 24.7955C20.0455 23.5114 20.6591 22.4716 21.4545 21.6761C22.25 20.8807 23.2045 20.1477 24.3182 19.4773C24.9886 19.0682 25.5909 18.5852 26.125 18.0284C26.6591 17.4602 27.0795 16.8068 27.3864 16.0682C27.7045 15.3295 27.8636 14.5114 27.8636 13.6136C27.8636 12.5 27.6023 11.5341 27.0795 10.7159C26.5568 9.89773 25.858 9.26704 24.983 8.82386C24.108 8.38068 23.1364 8.15909 22.0682 8.15909C21.1364 8.15909 20.2386 8.35227 19.375 8.73864C18.5114 9.125 17.7898 9.73295 17.2102 10.5625C16.6307 11.392 16.2955 12.4773 16.2045 13.8182H11.9091C12 11.8864 12.5 10.233 13.4091 8.85795C14.3295 7.48295 15.5398 6.43182 17.0398 5.70454C18.5511 4.97727 20.2273 4.61364 22.0682 4.61364C24.0682 4.61364 25.8068 5.01136 27.2841 5.80682C28.7727 6.60227 29.9205 7.69318 30.7273 9.07954C31.5455 10.4659 31.9545 12.0455 31.9545 13.8182C31.9545 15.0682 31.7614 16.1989 31.375 17.2102C31 18.2216 30.4545 19.125 29.7386 19.9205C29.0341 20.7159 28.1818 21.4205 27.1818 22.0341C26.1818 22.6591 25.3807 23.3182 24.7784 24.0114C24.1761 24.6932 23.7386 25.5057 23.4659 26.4489C23.1932 27.392 23.0455 28.5682 23.0227 29.9773V30.1818H18.9318ZM21.1136 40.2727C20.2727 40.2727 19.5511 39.9716 18.9489 39.3693C18.3466 38.767 18.0455 38.0455 18.0455 37.2045C18.0455 36.3636 18.3466 35.642 18.9489 35.0398C19.5511 34.4375 20.2727 34.1364 21.1136 34.1364C21.9545 34.1364 22.6761 34.4375 23.2784 35.0398C23.8807 35.642 24.1818 36.3636 24.1818 37.2045C24.1818 37.7614 24.0398 38.2727 23.7557 38.7386C23.483 39.2045 23.1136 39.5795 22.6477 39.8636C22.1932 40.1364 21.6818 40.2727 21.1136 40.2727Z" fill="#FCFDC0"/>
<path d="M18.9318 30.1818H17.9318V31.1818H18.9318V30.1818ZM18.9318 29.9773L17.9318 29.9668V29.9773H18.9318ZM19.6136 24.7955L18.6658 24.4767L19.6136 24.7955ZM21.4545 21.6761L22.1617 22.3832H22.1617L21.4545 21.6761ZM24.3182 19.4773L24.834 20.334L24.839 20.3309L24.3182 19.4773ZM26.125 18.0284L26.8467 18.7207L26.8536 18.7133L26.125 18.0284ZM27.3864 16.0682L26.4679 15.6725L26.4629 15.6846L27.3864 16.0682ZM19.375 8.73864L18.9666 7.82582L19.375 8.73864ZM17.2102 10.5625L18.03 11.1352L18.03 11.1352L17.2102 10.5625ZM16.2045 13.8182V14.8182H17.139L17.2023 13.8858L16.2045 13.8182ZM11.9091 13.8182L10.9102 13.7712L10.8609 14.8182H11.9091V13.8182ZM13.4091 8.85795L12.5781 8.30166L12.5749 8.30644L13.4091 8.85795ZM17.0398 5.70454L16.6062 4.80344L16.6035 4.80473L17.0398 5.70454ZM27.2841 5.80682L26.81 6.68729L26.8128 6.6888L27.2841 5.80682ZM30.7273 9.07954L29.863 9.58254L29.8661 9.5878L30.7273 9.07954ZM31.375 17.2102L30.4408 16.8533L30.4374 16.8626L31.375 17.2102ZM29.7386 19.9205L28.9953 19.2515L28.99 19.2574L29.7386 19.9205ZM27.1818 22.0341L26.6588 21.1817L26.6518 21.1861L27.1818 22.0341ZM24.7784 24.0114L25.5279 24.6734L25.5333 24.6672L24.7784 24.0114ZM23.0227 29.9773L22.0229 29.9611L22.0227 29.9692V29.9773H23.0227ZM23.0227 30.1818V31.1818H24.0227V30.1818H23.0227ZM18.9489 39.3693L19.656 38.6622H19.656L18.9489 39.3693ZM18.9489 35.0398L19.656 35.7469H19.656L18.9489 35.0398ZM23.7557 38.7386L22.9019 38.218L22.8972 38.2257L22.8927 38.2335L23.7557 38.7386ZM22.6477 39.8636L23.1622 40.7211L23.1683 40.7174L22.6477 39.8636ZM19.9318 30.1818V29.9773H17.9318V30.1818H19.9318ZM19.9318 29.9877C19.954 27.867 20.177 26.2575 20.5615 25.1142L18.6658 24.4767C18.1866 25.9016 17.9551 27.7466 17.9319 29.9668L19.9318 29.9877ZM20.5615 25.1142C20.954 23.9469 21.4954 23.0495 22.1617 22.3832L20.7474 20.969C19.8228 21.8937 19.1369 23.0759 18.6658 24.4767L20.5615 25.1142ZM22.1617 22.3832C22.8916 21.6533 23.7794 20.9689 24.834 20.334L23.8024 18.6206C22.6297 19.3266 21.6084 20.108 20.7474 20.969L22.1617 22.3832ZM24.839 20.3309C25.5818 19.8777 26.2518 19.3408 26.8467 18.7206L25.4033 17.3362C24.93 17.8296 24.3955 18.2586 23.7973 18.6236L24.839 20.3309ZM26.8536 18.7133C27.4724 18.055 27.958 17.2989 28.3099 16.4518L26.4629 15.6846C26.2011 16.3148 25.8457 16.8654 25.3964 17.3435L26.8536 18.7133ZM28.3048 16.4638C28.6827 15.5864 28.8636 14.6316 28.8636 13.6136H26.8636C26.8636 14.3912 26.7264 15.0726 26.468 15.6726L28.3048 16.4638ZM28.8636 13.6136C28.8636 12.3379 28.5621 11.1791 27.9222 10.1775L26.2368 11.2543C26.6424 11.8891 26.8636 12.6621 26.8636 13.6136H28.8636ZM27.9222 10.1775C27.3022 9.20698 26.4677 8.4549 25.4348 7.93176L24.5311 9.71596C25.2483 10.0792 25.8115 10.5885 26.2368 11.2543L27.9222 10.1775ZM25.4348 7.93176C24.4076 7.41147 23.2791 7.15909 22.0682 7.15909V9.15909C22.9936 9.15909 23.8084 9.34989 24.5311 9.71596L25.4348 7.93176ZM22.0682 7.15909C20.9934 7.15909 19.9567 7.38289 18.9666 7.82582L19.7834 9.65145C20.5206 9.32165 21.2793 9.15909 22.0682 9.15909V7.15909ZM18.9666 7.82582C17.926 8.29135 17.0663 9.02243 16.3905 9.98979L18.03 11.1352C18.5133 10.4435 19.0967 9.95864 19.7834 9.65145L18.9666 7.82582ZM16.3905 9.98979C15.678 11.0097 15.3061 12.2861 15.2068 13.7505L17.2023 13.8858C17.2848 12.6685 17.5834 11.7744 18.03 11.1352L16.3905 9.98979ZM16.2045 12.8182H11.9091V14.8182H16.2045V12.8182ZM12.908 13.8652C12.9919 12.0818 13.4496 10.6099 14.2433 9.40947L12.5749 8.30644C11.5504 9.856 11.0081 11.6909 10.9102 13.7712L12.908 13.8652ZM14.2401 9.41424C15.061 8.18791 16.1345 7.25479 17.476 6.60436L16.6035 4.80473C14.945 5.60884 13.5981 6.778 12.5781 8.30167L14.2401 9.41424ZM17.4734 6.60564C18.8367 5.94961 20.3626 5.61364 22.0682 5.61364V3.61364C20.092 3.61364 18.2656 4.00493 16.6062 4.80344L17.4734 6.60564ZM22.0682 5.61364C23.9344 5.61364 25.504 5.98406 26.81 6.68729L27.7582 4.92634C26.1096 4.03867 24.202 3.61364 22.0682 3.61364V5.61364ZM26.8128 6.6888C28.1468 7.4016 29.1544 8.36505 29.863 9.58253L31.5916 8.57655C30.6865 7.02131 29.3987 5.80295 27.7554 4.92484L26.8128 6.6888ZM29.8661 9.5878C30.5844 10.8049 30.9545 12.2056 30.9545 13.8182H32.9545C32.9545 11.8853 32.5065 10.1269 31.5885 8.57129L29.8661 9.5878ZM30.9545 13.8182C30.9545 14.9648 30.7775 15.9721 30.4408 16.8534L32.3092 17.5671C32.7452 16.4256 32.9545 15.1716 32.9545 13.8182H30.9545ZM30.4374 16.8626C30.1059 17.7565 29.6261 18.5507 28.9953 19.2515L30.4819 20.5894C31.283 19.6993 31.8941 18.6867 32.3126 17.5579L30.4374 16.8626ZM28.99 19.2574C28.3574 19.9717 27.5834 20.6144 26.6588 21.1818L27.7048 22.8864C28.7803 22.2265 29.7108 21.4601 30.4872 20.5835L28.99 19.2574ZM26.6518 21.1861C25.5903 21.8495 24.7063 22.5697 24.0235 23.3555L25.5333 24.6672C26.0551 24.0666 26.7733 23.4687 27.7118 22.8821L26.6518 21.1861ZM24.0289 23.3493C23.3211 24.1506 22.8158 25.0972 22.5053 26.1711L24.4266 26.7266C24.6615 25.9141 25.0312 25.2357 25.5279 24.6734L24.0289 23.3493ZM22.5053 26.1711C22.1998 27.2274 22.0464 28.4984 22.0229 29.9611L24.0226 29.9934C24.0445 28.6379 24.1865 27.5567 24.4266 26.7266L22.5053 26.1711ZM22.0227 29.9773V30.1818H24.0227V29.9773H22.0227ZM23.0227 29.1818H18.9318V31.1818H23.0227V29.1818ZM21.1136 39.2727C20.5418 39.2727 20.0734 39.0797 19.656 38.6622L18.2418 40.0764C19.0289 40.8635 20.0037 41.2727 21.1136 41.2727V39.2727ZM19.656 38.6622C19.2385 38.2448 19.0455 37.7764 19.0455 37.2045H17.0455C17.0455 38.3145 17.4547 39.2893 18.2418 40.0764L19.656 38.6622ZM19.0455 37.2045C19.0455 36.6327 19.2385 36.1643 19.656 35.7469L18.2418 34.3327C17.4547 35.1198 17.0455 36.0946 17.0455 37.2045H19.0455ZM19.656 35.7469C20.0734 35.3294 20.5418 35.1364 21.1136 35.1364V33.1364C20.0037 33.1364 19.0289 33.5456 18.2418 34.3327L19.656 35.7469ZM21.1136 35.1364C21.6855 35.1364 22.1539 35.3294 22.5713 35.7469L23.9855 34.3327C23.1984 33.5456 22.2236 33.1364 21.1136 33.1364V35.1364ZM22.5713 35.7469C22.9888 36.1643 23.1818 36.6327 23.1818 37.2045H25.1818C25.1818 36.0946 24.7726 35.1198 23.9855 34.3327L22.5713 35.7469ZM23.1818 37.2045C23.1818 37.5816 23.0883 37.9123 22.9019 38.218L24.6095 39.2592C24.9912 38.6332 25.1818 37.9411 25.1818 37.2045H23.1818ZM22.8927 38.2335C22.7044 38.555 22.4534 38.8109 22.1271 39.0098L23.1683 40.7174C23.7739 40.3482 24.2615 39.8541 24.6187 39.2438L22.8927 38.2335ZM22.1332 39.0061C21.8453 39.1789 21.5141 39.2727 21.1136 39.2727V41.2727C21.8495 41.2727 22.5411 41.0938 23.1622 40.7211L22.1332 39.0061Z" fill="black"/>
</g>
<defs>
<clipPath id="clip0_60_2904">
<rect width="46" height="46" fill="white"/>
</clipPath>
</defs>
</svg>
