<svg width="49" height="49" viewBox="0 0 49 49" fill="none" xmlns="http://www.w3.org/2000/svg">
<g clip-path="url(#clip0_31_148)">
<path d="M24.5 45.1888C29.2256 45.6711 33.6577 42.7903 37.1065 39.5239C40.3833 36.4204 42.78 32.2584 42.9156 27.7472C43.0401 23.603 39.6323 20.5414 37.7886 16.8279C35.745 12.7118 35.6502 7.15737 31.6079 4.97139C27.4118 2.70226 22.3211 4.58156 17.7667 6.00052C12.9548 7.49974 7.63 8.94149 5.02207 13.2544C2.39115 17.6054 2.67452 23.2693 4.44198 28.0368C6.00995 32.2662 10.4542 34.2222 13.8823 37.1537C17.3605 40.128 19.9472 44.7242 24.5 45.1888Z" fill="#FFE4A8"/>
<path d="M21.6764 24.0654V31.0158H17.3325L14.7261 27.5406L17.3325 24.0654H21.6764Z" fill="white"/>
<path d="M17.3324 24.0654V31.0158H9.07883L4.73486 27.5406L9.07883 24.0654H17.3324Z" fill="#FFE4A8"/>
<path d="M39.9211 14.5088H37.3147V21.4591H39.9211L44.2651 17.984L39.9211 14.5088Z" fill="white"/>
<path d="M27.3235 14.5088H37.3147L41.6587 17.984L37.3147 21.4591H27.3235V14.5088Z" fill="#FFE4A8"/>
<path d="M21.6764 14.5088V21.4591H17.3325L14.7261 17.984L17.3325 14.5088H21.6764Z" fill="white"/>
<path d="M17.3324 14.5088V21.4591H9.07883L4.73486 17.984L9.07883 14.5088H17.3324Z" fill="#FFE4A8"/>
<path d="M24.5 38.5154L26.7171 40.253L24.5 44.2651V38.5154Z" fill="#FFE4A8"/>
<path d="M22.2828 40.253L23.8667 38.5154L25.4505 40.253L24.5 44.2651L22.2828 40.253Z" fill="#FFE4A8"/>
<path d="M25.4505 34.2739L29.0611 36.0115L26.7171 40.253H25.4505V34.2739Z" fill="white"/>
<path d="M26.4548 36.0115L25.4505 40.253H22.2828L19.9388 36.0115L23.1968 34.2739L26.4548 36.0115Z" fill="#FFE4A8"/>
<path d="M26.4548 13.64L29.0612 11.9024V9.29599C29.0612 6.77733 27.0186 4.73486 24.5001 4.73486L26.4548 13.64Z" fill="#FFE4A8"/>
<path d="M19.9388 9.29599C19.9388 6.77653 21.9805 4.73486 24.5 4.73486C25.5799 4.73486 26.4548 6.77741 26.4548 9.29599V13.64L19.9632 11.9024H19.9388V9.29599Z" fill="#FFE4A8"/>
<path d="M24.7172 12.7712L29.0611 14.5088V36.0115H26.4548L24.7172 12.7712Z" fill="white"/>
<path d="M22.7624 12.7712L26.4548 14.5088V36.0115H24.5L22.7624 12.7712Z" fill="#FFE4A8"/>
<path d="M19.9632 14.5088L24.5 12.7712V36.0115H19.9388V14.5088H19.9632Z" fill="#FFF1B1"/>
<path d="M26.4548 14.5087H29.0611V11.9023H26.4548L24.7172 13.2055L26.4548 14.5087Z" fill="white"/>
<path d="M26.4548 11.9023H19.9388V14.5087H26.4548V11.9023Z" fill="#FFE4A8"/>
<path d="M44.672 17.4752L40.3281 14.0001C40.2125 13.9077 40.069 13.8573 39.921 13.8573H29.7127V9.29596C29.7127 7.90364 29.1705 6.5945 28.1859 5.61004C27.2013 4.62541 25.8923 4.08317 24.5 4.08325C21.6257 4.08325 19.2872 6.42168 19.2872 9.29604V13.8572H9.07886C8.93092 13.8572 8.78736 13.9076 8.6718 14L4.32791 17.4752C4.17335 17.5988 4.08331 17.786 4.08331 17.984C4.08331 18.1819 4.17335 18.3692 4.32791 18.4927L8.67188 21.9679C8.78744 22.0602 8.93092 22.1107 9.07894 22.1107H17.3325C17.6923 22.1107 17.984 21.819 17.984 21.4591C17.984 21.0992 17.6923 20.8075 17.3325 20.8075H9.30743L5.77798 17.984L9.30743 15.1604H19.2872V23.4139H9.07886C8.93092 23.4139 8.78736 23.4643 8.6718 23.5568L4.32791 27.0319C4.17335 27.1554 4.08331 27.3428 4.08331 27.5407C4.08331 27.7387 4.17335 27.9259 4.32791 28.0495L8.67188 31.5246C8.78744 31.617 8.93092 31.6674 9.07894 31.6674H19.2873V36.0114C19.2873 36.1216 19.3153 36.2301 19.3686 36.3266L21.7095 40.5625C21.7107 40.5646 23.9298 44.5801 23.9298 44.5801C24.0445 44.7877 24.263 44.9165 24.5001 44.9165C24.7373 44.9165 24.9558 44.7876 25.0704 44.5801L27.2891 40.5654C27.2911 40.5619 29.6316 36.3266 29.6316 36.3266C29.6849 36.2301 29.7129 36.1216 29.7129 36.0114V22.1108H39.9213C40.0692 22.1108 40.2128 22.0604 40.3283 21.9679L44.6723 18.4928C44.8268 18.3692 44.9169 18.1819 44.9169 17.9841C44.9169 17.7862 44.8266 17.5988 44.672 17.4752ZM24.5 5.38641C25.5443 5.38641 26.526 5.79307 27.2644 6.5315C28.0027 7.26993 28.4095 8.2516 28.4095 9.29588V11.2508H20.5903V9.29604C20.5904 7.14025 22.3443 5.38641 24.5 5.38641ZM20.5904 12.554H28.4096V13.8572H20.5904V12.554ZM23.8484 15.1604V29.0611C23.8484 29.4211 24.1401 29.7127 24.5 29.7127C24.8598 29.7127 25.1516 29.4211 25.1516 29.0611V15.1604H28.4095V35.3598H25.1516V31.6674C25.1516 31.3075 24.8598 31.0159 24.5 31.0159C24.1401 31.0159 23.8484 31.3075 23.8484 31.6674V35.3598H20.5904V15.1604H23.8484ZM26.3329 39.6012H22.6672L21.0434 36.6631H27.9566L26.3329 39.6012ZM9.30743 30.3643L5.77798 27.5407L9.30743 24.7172H19.2872V30.3644L9.30743 30.3643ZM24.5 42.9178L23.3874 40.9044H25.6127L24.5 42.9178ZM39.6925 20.8075H29.7128V15.1603H39.6925L43.222 17.9839L39.6925 20.8075Z" fill="black"/>
<path d="M24.5 43.0209C31.0815 42.9938 38.5984 44.1572 42.8621 39.1434C47.2106 34.0299 46.2811 26.3679 44.0431 20.0395C42.1188 14.5983 37.3638 11.0856 32.1014 8.71573C27.0496 6.44072 21.2679 5.02414 16.345 7.56606C11.5451 10.0445 10.2547 15.7314 8.57252 20.8648C6.53939 27.069 2.13635 33.9942 5.94725 39.2954C9.82087 44.6839 17.8637 43.0483 24.5 43.0209Z" fill="#FFE4A8"/>
<path d="M21.6764 24.0654V31.0158H17.3325L14.7261 27.5406L17.3325 24.0654H21.6764Z" fill="white"/>
<path d="M17.3324 24.0654V31.0158H9.07883L4.73486 27.5406L9.07883 24.0654H17.3324Z" fill="#FFE4A8"/>
<path d="M39.9211 14.5088H37.3147V21.4591H39.9211L44.2651 17.984L39.9211 14.5088Z" fill="white"/>
<path d="M27.3235 14.5088H37.3147L41.6587 17.984L37.3147 21.4591H27.3235V14.5088Z" fill="#FFE4A8"/>
<path d="M21.6764 14.5088V21.4591H17.3325L14.7261 17.984L17.3325 14.5088H21.6764Z" fill="white"/>
<path d="M17.3324 14.5088V21.4591H9.07883L4.73486 17.984L9.07883 14.5088H17.3324Z" fill="#FFE4A8"/>
<path d="M24.5 38.5154L26.7171 40.253L24.5 44.2651V38.5154Z" fill="#4D4D4D"/>
<path d="M22.2828 40.253L23.8667 38.5154L25.4505 40.253L24.5 44.2651L22.2828 40.253Z" fill="#737373"/>
<path d="M25.4505 34.2739L29.0611 36.0115L26.7171 40.253H25.4505V34.2739Z" fill="#FFC1A6"/>
<path d="M26.4548 36.0115L25.4505 40.253H22.2828L19.9388 36.0115L23.1968 34.2739L26.4548 36.0115Z" fill="#FFDBCC"/>
<path d="M26.4548 13.64L29.0612 11.9024V9.29599C29.0612 6.77733 27.0186 4.73486 24.5001 4.73486L26.4548 13.64Z" fill="#FE5F1A"/>
<path d="M19.9388 9.29599C19.9388 6.77653 21.9805 4.73486 24.5 4.73486C25.5799 4.73486 26.4548 6.77741 26.4548 9.29599V13.64L19.9632 11.9024H19.9388V9.29599Z" fill="#FE834D"/>
<path d="M24.7172 12.7712L29.0611 14.5088V36.0115H26.4548L24.7172 12.7712Z" fill="#FEDC3D"/>
<path d="M22.7624 12.7712L26.4548 14.5088V36.0115H24.5L22.7624 12.7712Z" fill="#FFE777"/>
<path d="M19.9632 14.5088L24.5 12.7712V36.0115H19.9388V14.5088H19.9632Z" fill="#FFF1B1"/>
<path d="M26.4548 14.5087H29.0611V11.9023H26.4548L24.7172 13.2055L26.4548 14.5087Z" fill="#B9B9B9"/>
<path d="M26.4548 11.9023H19.9388V14.5087H26.4548V11.9023Z" fill="#DCDCDC"/>
<path d="M44.6721 17.4752L40.3281 14.0001C40.2125 13.9077 40.069 13.8573 39.921 13.8573H29.7127V9.29596C29.7127 7.90364 29.1705 6.5945 28.1859 5.61004C27.2013 4.62541 25.8923 4.08317 24.5 4.08325C21.6257 4.08325 19.2872 6.42168 19.2872 9.29604V13.8572H9.07886C8.93092 13.8572 8.78736 13.9076 8.6718 14L4.32791 17.4752C4.17335 17.5988 4.08331 17.786 4.08331 17.984C4.08331 18.1819 4.17335 18.3692 4.32791 18.4927L8.67188 21.9679C8.78744 22.0602 8.93092 22.1107 9.07894 22.1107H17.3325C17.6923 22.1107 17.984 21.819 17.984 21.4591C17.984 21.0992 17.6923 20.8075 17.3325 20.8075H9.30743L5.77798 17.984L9.30743 15.1604H19.2872V23.4139H9.07886C8.93092 23.4139 8.78736 23.4643 8.6718 23.5568L4.32791 27.0319C4.17335 27.1554 4.08331 27.3428 4.08331 27.5407C4.08331 27.7387 4.17335 27.9259 4.32791 28.0495L8.67188 31.5246C8.78744 31.617 8.93092 31.6674 9.07894 31.6674H19.2873V36.0114C19.2873 36.1216 19.3153 36.2301 19.3686 36.3266L21.7095 40.5625C21.7107 40.5646 23.9298 44.5801 23.9298 44.5801C24.0445 44.7877 24.263 44.9165 24.5001 44.9165C24.7373 44.9165 24.9558 44.7876 25.0705 44.5801L27.2891 40.5654C27.2911 40.5619 29.6316 36.3266 29.6316 36.3266C29.6849 36.2301 29.7129 36.1216 29.7129 36.0114V22.1108H39.9213C40.0692 22.1108 40.2128 22.0604 40.3283 21.9679L44.6723 18.4928C44.8268 18.3692 44.9169 18.1819 44.9169 17.9841C44.9169 17.7862 44.8266 17.5988 44.6721 17.4752ZM24.5 5.38641C25.5443 5.38641 26.526 5.79307 27.2644 6.5315C28.0027 7.26993 28.4095 8.2516 28.4095 9.29588V11.2508H20.5903V9.29604C20.5904 7.14025 22.3443 5.38641 24.5 5.38641ZM20.5904 12.554H28.4096V13.8572H20.5904V12.554ZM23.8484 15.1604V29.0611C23.8484 29.4211 24.1401 29.7127 24.5 29.7127C24.8598 29.7127 25.1516 29.4211 25.1516 29.0611V15.1604H28.4095V35.3598H25.1516V31.6674C25.1516 31.3075 24.8598 31.0159 24.5 31.0159C24.1401 31.0159 23.8484 31.3075 23.8484 31.6674V35.3598H20.5904V15.1604H23.8484ZM26.3329 39.6012H22.6672L21.0434 36.6631H27.9566L26.3329 39.6012ZM9.30743 30.3643L5.77798 27.5407L9.30743 24.7172H19.2872V30.3644L9.30743 30.3643ZM24.5 42.9178L23.3874 40.9044H25.6127L24.5 42.9178ZM39.6925 20.8075H29.7128V15.1603H39.6925L43.222 17.9839L39.6925 20.8075Z" fill="black"/>
</g>
<defs>
<clipPath id="clip0_31_148">
<rect width="49" height="49" fill="white"/>
</clipPath>
</defs>
</svg>
