<svg width="24" height="34" viewBox="0 0 24 34" fill="none" xmlns="http://www.w3.org/2000/svg">
<path d="M1.39172 4.10413V32.9125L12.0002 29.8959V1.08752L1.39172 4.10413Z" fill="#FAFAFA"/>
<path d="M12.0001 1.08752V29.8959L22.6082 32.9125V4.10413L12.0001 1.08752Z" fill="#FAFAFA"/>
<path d="M19.5915 28.284V18.3292L15.0166 17.0283V26.9831L19.5915 28.284Z" fill="#FAFAFA"/>
<path d="M22.8145 3.37869L12.2065 0.362085C12.2022 0.360848 12.1979 0.360522 12.1937 0.359351C12.1691 0.352775 12.1441 0.347567 12.1186 0.34353C12.1104 0.342228 12.1021 0.340796 12.0938 0.339754C12.0635 0.335978 12.033 0.333504 12.0018 0.333374C12.0012 0.333439 12.0005 0.333374 11.9999 0.333374C11.9678 0.333374 11.9365 0.336043 11.9055 0.33995C11.898 0.340926 11.8906 0.342228 11.8831 0.343335C11.8561 0.347567 11.8297 0.353035 11.8037 0.360067C11.8005 0.360978 11.7971 0.361174 11.7938 0.36215L11.777 0.366903C11.7764 0.367098 11.7757 0.367293 11.7751 0.367424L1.18536 3.37869C0.861141 3.47094 0.637573 3.7671 0.637573 4.10408V32.9125C0.637573 33.1491 0.748511 33.3718 0.937182 33.5143C1.12585 33.6569 1.37045 33.7026 1.59799 33.6379L12.0003 30.68L22.402 33.6379C22.4699 33.6573 22.5393 33.6666 22.6083 33.6666C22.7705 33.6666 22.9305 33.6143 23.0628 33.5143C23.2515 33.3718 23.3624 33.149 23.3624 32.9125V4.10414C23.3623 3.7671 23.1387 3.47094 22.8145 3.37869ZM2.14584 4.67374L11.2458 2.08611V29.3265L2.14584 31.9141V4.67374ZM21.854 31.914L12.754 29.3263V2.08591L21.854 4.67367V31.914Z" fill="#01121C"/>
<path d="M14.8104 6.4415L19.3852 7.74241C19.4542 7.76201 19.5236 7.77138 19.5918 7.77138C19.9203 7.77138 20.2225 7.55504 20.3169 7.22334C20.4308 6.82269 20.1984 6.40563 19.7978 6.29163L15.223 4.99072C14.8223 4.87685 14.4053 5.10927 14.2913 5.5098C14.1774 5.91045 14.4098 6.32757 14.8104 6.4415Z" fill="#01121C"/>
<path d="M14.8104 10.2122L19.3852 11.5131C19.4542 11.5327 19.5236 11.5421 19.5918 11.5421C19.9203 11.5421 20.2225 11.3258 20.3169 10.9941C20.4308 10.5934 20.1984 10.1764 19.7978 10.0624L15.223 8.76144C14.8223 8.64731 14.4053 8.88 14.2913 9.28052C14.1774 9.6811 14.4098 10.0982 14.8104 10.2122Z" fill="#01121C"/>
<path d="M14.8104 13.9829L19.3852 15.2838C19.4542 15.3034 19.5236 15.3128 19.5918 15.3128C19.9203 15.3128 20.2225 15.0965 20.3169 14.7648C20.4308 14.3641 20.1984 13.9471 19.7978 13.8331L15.223 12.5321C14.8223 12.4182 14.4053 12.6507 14.2913 13.0512C14.1774 13.4519 14.4098 13.869 14.8104 13.9829Z" fill="#01121C"/>
<path d="M14.8104 27.7085L19.3852 29.0094C19.4531 29.0288 19.5224 29.0381 19.5914 29.0381C19.7537 29.0381 19.9136 28.9858 20.046 28.8857C20.2347 28.7432 20.3456 28.5204 20.3456 28.284V18.3292C20.3456 17.9922 20.1219 17.696 19.7977 17.6038L15.2229 16.3029C14.9954 16.2383 14.7508 16.284 14.5621 16.4266C14.3734 16.5691 14.2625 16.7919 14.2625 17.0283V26.9831C14.2625 27.3201 14.4861 27.6163 14.8104 27.7085ZM15.7708 18.0268L18.8373 18.8988V27.2855L15.7708 26.4135V18.0268Z" fill="#01121C"/>
<path d="M8.77717 26.2576L4.20184 27.5585C3.80125 27.6725 3.56883 28.0896 3.68276 28.4902C3.77704 28.822 4.07925 29.0383 4.40783 29.0383C4.47606 29.0383 4.54553 29.0289 4.61447 29.0093L9.1898 27.7083C9.59038 27.5944 9.8228 27.1773 9.70887 26.7766C9.59487 26.3761 9.17769 26.1437 8.77717 26.2576Z" fill="#01121C"/>
<path d="M4.40771 7.77136C4.47594 7.77136 4.5454 7.76198 4.61435 7.74238L9.18967 6.44141C9.59026 6.32747 9.82268 5.91035 9.70875 5.5097C9.59488 5.10912 9.17763 4.87669 8.77704 4.99063L4.20172 6.2916C3.80113 6.40553 3.56871 6.82266 3.68264 7.22331C3.77698 7.55495 4.07913 7.77136 4.40771 7.77136Z" fill="#01121C"/>
<path d="M8.77717 8.76135L4.20184 10.0623C3.80125 10.1763 3.56883 10.5934 3.68276 10.994C3.77704 11.3257 4.07925 11.5421 4.40783 11.5421C4.47606 11.5421 4.54553 11.5327 4.61447 11.5131L9.1898 10.2121C9.59038 10.0982 9.8228 9.68108 9.70887 9.28043C9.59487 8.87991 9.17769 8.64748 8.77717 8.76135Z" fill="#01121C"/>
</svg>
