<svg width="16" height="16" viewBox="0 0 16 16" fill="none" xmlns="http://www.w3.org/2000/svg">
<path d="M14.1669 15.0915L8.80135 9.72595C8.35236 10.0552 7.86001 10.3134 7.32433 10.5005C6.78864 10.6876 6.21861 10.7811 5.61424 10.7811C4.11706 10.7811 2.84463 10.2573 1.79696 9.2096C0.749297 8.16194 0.225464 6.88977 0.225464 5.39311C0.225464 3.89644 0.749297 2.62428 1.79696 1.57661C2.84463 0.528944 4.11679 0.00511169 5.61346 0.00511169C7.11012 0.00511169 8.38229 0.528944 9.42995 1.57661C10.4776 2.62428 11.0015 3.8967 11.0015 5.39389C11.0015 5.99826 10.9079 6.56829 10.7208 7.10397C10.5337 7.63966 10.2756 8.132 9.9463 8.581L15.3118 13.9465L14.1669 15.0915ZM5.61346 9.1647C6.66112 9.1647 7.55164 8.79802 8.28501 8.06465C9.01837 7.33129 9.38505 6.44077 9.38505 5.39311C9.38505 4.34544 9.01837 3.45492 8.28501 2.72156C7.55164 1.98819 6.66112 1.62151 5.61346 1.62151C4.56579 1.62151 3.67528 1.98819 2.94191 2.72156C2.20855 3.45492 1.84186 4.34544 1.84186 5.39311C1.84186 6.44077 2.20855 7.33129 2.94191 8.06465C3.67528 8.79802 4.56579 9.1647 5.61346 9.1647Z" fill="#676767"/>
</svg>
