<svg width="23" height="22" viewBox="0 0 23 22" fill="none" xmlns="http://www.w3.org/2000/svg">
<path d="M1.35795 21.5087H4.21528C4.58328 21.5087 4.88195 21.2106 4.88195 20.842V15.966C4.88195 15.5973 4.58328 15.2993 4.21528 15.2993H1.35795C0.989951 15.2993 0.691284 15.5973 0.691284 15.966V20.842C0.691284 21.21 0.989951 21.5087 1.35795 21.5087ZM2.02462 16.632H3.54862V20.1747H2.02462V16.632Z" fill="#231F20"/>
<path d="M9.92927 21.5086C10.2973 21.5086 10.5959 21.2106 10.5959 20.842V7.08195C10.5959 6.71328 10.2973 6.41528 9.92927 6.41528H7.07194C6.70394 6.41528 6.40527 6.71328 6.40527 7.08195V20.842C6.40527 21.2106 6.70394 21.5086 7.07194 21.5086H9.92927ZM7.73861 7.74862H9.26261V20.1753H7.73861V7.74862Z" fill="#231F20"/>
<path d="M15.6433 21.5086C16.0113 21.5086 16.31 21.2106 16.31 20.8419V11.6399C16.31 11.2713 16.0113 10.9733 15.6433 10.9733H12.7867C12.4187 10.9733 12.12 11.2713 12.12 11.6399V20.8419C12.12 21.2106 12.4187 21.5086 12.7867 21.5086H15.6433ZM13.4533 12.3066H14.9773V20.1753H13.4533V12.3066Z" fill="#231F20"/>
<path d="M17.834 0.84196V20.842C17.834 21.2106 18.1327 21.5086 18.5007 21.5086H21.358C21.726 21.5086 22.0247 21.2106 22.0247 20.842V0.84196C22.0247 0.473293 21.726 0.175293 21.358 0.175293H18.5007C18.1327 0.175293 17.834 0.473293 17.834 0.84196ZM19.1673 1.50863H20.6913V20.1753H19.1673V1.50863Z" fill="#231F20"/>
</svg>
