<svg width="26" height="34" viewBox="0 0 26 34" fill="none" xmlns="http://www.w3.org/2000/svg">
<path d="M17.9444 4.77771V7.55546C17.9444 7.88879 17.7222 8.11099 17.4444 8.11099H7.44439C7.1666 8.11099 6.9444 7.83319 6.9444 7.55546V4.77771H3V33.111H21.8888V4.77771H17.9444Z" fill="#FAFAFA"/>
<path d="M21.8887 33.1109H23.5554V4.77771H21.8887V33.1109Z" fill="#FAFAFA"/>
<path d="M23.5554 4.22217V33.6665H24.3887C24.8332 33.6665 25.2221 33.2776 25.2221 32.8332V5.05549C25.2221 4.61103 24.8332 4.22217 24.3887 4.22217H23.5554Z" fill="#FAFAFA"/>
<path d="M1.33325 33.1109H2.99989V4.77771H1.33325V33.1109Z" fill="#FAFAFA"/>
<path d="M16.3331 30.3331V25.8887H20.7775L16.3331 30.3331Z" fill="#FAFAFA"/>
<path d="M17.9999 6.99988V7.5554C17.9999 7.88873 17.7221 8.11093 17.4443 8.11093H7.44436C7.11103 8.11093 6.88884 7.83313 6.88884 7.5554V6.99988H4.11108V30.3332H16.3333V25.8887H19.111V6.99988H17.9999Z" fill="#FAFAFA"/>
<path d="M19.111 25.8887H20.7776V6.99988H19.111V25.8887Z" fill="#FAFAFA"/>
<path d="M6.88879 14.2221H10.2221V10.8888H6.88879V14.2221Z" fill="#FAFAFA"/>
<path d="M6.88879 20.3332H10.2221V16.9999H6.88879V20.3332Z" fill="#FAFAFA"/>
<path d="M6.88879 26.4443H10.2221V23.111H6.88879V26.4443Z" fill="#FAFAFA"/>
<path d="M15.2221 3.11102V1.99991C15.2221 1.38879 14.7221 0.888794 14.111 0.888794H10.7777C10.1665 0.888794 9.66655 1.38879 9.66655 1.99991V3.11102H7.44432C7.11099 3.11102 6.88879 3.33322 6.88879 3.66655V7.55542C6.88879 7.88874 7.16659 8.11094 7.44432 8.11094H17.4443C17.7776 8.11094 17.9998 7.83315 17.9998 7.55542V3.66661C17.9998 3.33329 17.7776 3.11109 17.4443 3.11109L15.2221 3.11102Z" fill="#FAFAFA"/>
<path d="M15.2221 3.11102V1.99991C15.2221 1.38879 14.7221 0.888794 14.111 0.888794H10.7777C10.1665 0.888794 9.66655 1.38879 9.66655 1.99991V3.11102H7.44432C7.11099 3.11102 6.88879 3.33322 6.88879 3.66655V7.55542C6.88879 7.88874 7.16659 8.11094 7.44432 8.11094H15.7776C16.111 8.11094 16.3332 7.83315 16.3332 7.55542V3.66661C16.3332 3.33329 16.111 3.11109 15.7776 3.11109L15.2221 3.11102Z" fill="#FAFAFA"/>
<path d="M17.4443 8.66658H7.44437C6.83324 8.66658 6.33325 8.16659 6.33325 7.55547V3.6666C6.33325 3.05547 6.83324 2.55548 7.44437 2.55548H9.11101V1.99989C9.11101 1.05544 9.83319 0.333252 10.7776 0.333252H14.111C15.0554 0.333252 15.7776 1.05544 15.7776 1.99989V2.55542H17.4443C18.0554 2.55542 18.5554 3.05541 18.5554 3.66653V7.5554C18.5554 8.16659 18.0555 8.66658 17.4443 8.66658ZM7.44437 3.6666V7.55547H17.4443V3.6666H15.2221C14.8888 3.6666 14.6666 3.4444 14.6666 3.11107V1.99989C14.6666 1.66656 14.4444 1.44437 14.1111 1.44437H10.7777C10.4444 1.44437 10.2222 1.66656 10.2222 1.99989V3.11101C10.2222 3.44433 9.99999 3.66653 9.66666 3.66653L7.44437 3.6666Z" fill="black"/>
<path d="M23.5554 33.6665H1.33323C0.999906 33.6665 0.77771 33.4443 0.77771 33.111V15.3332C0.77771 14.9999 0.999906 14.7777 1.33323 14.7777C1.66656 14.7777 1.88876 14.9999 1.88876 15.3332V32.5554H22.9998V5.33322H18.5553V7.55545C18.5553 8.16657 18.0554 8.66656 17.4442 8.66656H7.44433C6.83321 8.66656 6.33322 8.16657 6.33322 7.55545V5.33322H1.88876V10.8887C1.88876 11.2221 1.66656 11.4442 1.33323 11.4442C0.999906 11.4442 0.77771 11.2221 0.77771 10.8887V4.77769C0.77771 4.44436 0.999906 4.22217 1.33323 4.22217H6.88874C7.22207 4.22217 7.44427 4.44436 7.44427 4.77769V7.55545H17.4442V4.77769C17.4442 4.44436 17.6664 4.22217 17.9998 4.22217H23.5553C23.8886 4.22217 24.1108 4.44436 24.1108 4.77769V33.111C24.1109 33.4442 23.8887 33.6665 23.5554 33.6665Z" fill="black"/>
<path d="M1.88876 13.1109C1.88876 12.7776 1.66656 12.5554 1.33323 12.5554C0.999906 12.5554 0.77771 12.7776 0.77771 13.1109C0.77771 13.4443 0.999906 13.6665 1.33323 13.6665C1.66656 13.6665 1.88876 13.4443 1.88876 13.1109Z" fill="black"/>
<path d="M16.3332 30.8886C16.2777 30.8886 16.1666 30.8886 16.111 30.8331C15.8888 30.7776 15.7777 30.5553 15.7777 30.3331V25.8887C15.7777 25.5553 15.9999 25.3331 16.3332 25.3331H20.7777C20.9999 25.3331 21.2222 25.4443 21.2777 25.6665C21.3888 25.8887 21.3332 26.1109 21.1666 26.2776L16.7221 30.722C16.611 30.8331 16.4999 30.8886 16.3332 30.8886ZM16.8888 26.4442V28.9998L19.4443 26.4442H16.8888Z" fill="black"/>
<path d="M16.3331 30.8887H4.11094C3.77762 30.8887 3.55542 30.6665 3.55542 30.3331V6.99986C3.55542 6.66653 3.77762 6.44434 4.11094 6.44434H6.8887C7.22203 6.44434 7.44422 6.66653 7.44422 6.99986V7.55538H17.4442V6.99986C17.4442 6.66653 17.6664 6.44434 17.9997 6.44434H20.7775C21.1108 6.44434 21.333 6.66653 21.333 6.99986V25.8887C21.333 26.222 21.1108 26.4442 20.7775 26.4442H16.8886V30.3331C16.8887 30.6665 16.6665 30.8887 16.3331 30.8887ZM4.66653 29.7775H15.7776V25.8887C15.7776 25.5553 15.9997 25.3332 16.3331 25.3332H20.2219V7.55545H18.5553C18.5553 8.16657 18.0553 8.66657 17.4442 8.66657H7.44429C6.83317 8.66657 6.33317 8.16657 6.33317 7.55545H4.66653V29.7775Z" fill="black"/>
<path d="M10.2221 14.7776H6.88878C6.55545 14.7776 6.33325 14.5554 6.33325 14.2221V10.8888C6.33325 10.5554 6.55545 10.3333 6.88878 10.3333H10.2221C10.5554 10.3333 10.7776 10.5554 10.7776 10.8888V14.2221C10.7776 14.5554 10.5554 14.7776 10.2221 14.7776ZM7.44437 13.6666H9.6666V11.4444H7.44437V13.6666Z" fill="black"/>
<path d="M10.2221 20.8887H6.88878C6.55545 20.8887 6.33325 20.6665 6.33325 20.3332V16.9999C6.33325 16.6665 6.55545 16.4443 6.88878 16.4443H10.2221C10.5554 16.4443 10.7776 16.6665 10.7776 16.9999V20.3332C10.7776 20.6665 10.5554 20.8887 10.2221 20.8887ZM7.44437 19.7776H9.6666V17.5554H7.44437V19.7776Z" fill="black"/>
<path d="M10.2221 26.9998H6.88878C6.55545 26.9998 6.33325 26.7776 6.33325 26.4443V23.1109C6.33325 22.7776 6.55545 22.5554 6.88878 22.5554H10.2221C10.5554 22.5554 10.7776 22.7776 10.7776 23.1109V26.4443C10.7776 26.7776 10.5554 26.9998 10.2221 26.9998ZM7.44437 25.8887H9.6666V23.6665H7.44437V25.8887Z" fill="black"/>
<path d="M17.9998 11.4443H12.9999C12.6665 11.4443 12.4443 11.2221 12.4443 10.8888C12.4443 10.5554 12.6665 10.3333 12.9999 10.3333H17.9998C18.3332 10.3333 18.5554 10.5554 18.5554 10.8888C18.5554 11.2221 18.3332 11.4443 17.9998 11.4443Z" fill="black"/>
<path d="M16.3332 14.2221H12.9999C12.6665 14.2221 12.4443 13.9999 12.4443 13.6666C12.4443 13.3333 12.6665 13.1111 12.9999 13.1111H16.3332C16.6665 13.1111 16.8887 13.3333 16.8887 13.6666C16.8887 13.9999 16.6665 14.2221 16.3332 14.2221Z" fill="black"/>
<path d="M17.9998 17.5554H12.9999C12.6665 17.5554 12.4443 17.3332 12.4443 16.9999C12.4443 16.6665 12.6665 16.4443 12.9999 16.4443H17.9998C18.3332 16.4443 18.5554 16.6665 18.5554 16.9999C18.5554 17.3332 18.3332 17.5554 17.9998 17.5554Z" fill="black"/>
<path d="M16.3332 20.3332H12.9999C12.6665 20.3332 12.4443 20.111 12.4443 19.7777C12.4443 19.4444 12.6665 19.2222 12.9999 19.2222H16.3332C16.6665 19.2222 16.8887 19.4444 16.8887 19.7777C16.8887 20.111 16.6665 20.3332 16.3332 20.3332Z" fill="black"/>
<path d="M17.9998 24.222H12.9999C12.6665 24.222 12.4443 23.9998 12.4443 23.6665C12.4443 23.3332 12.6665 23.111 12.9999 23.111H17.9998C18.3332 23.111 18.5554 23.3332 18.5554 23.6665C18.5554 23.9998 18.3332 24.222 17.9998 24.222Z" fill="black"/>
<path d="M14.111 26.9998H12.9999C12.6665 26.9998 12.4443 26.7776 12.4443 26.4443C12.4443 26.111 12.6665 25.8888 12.9999 25.8888H14.111C14.4443 25.8888 14.6665 26.111 14.6665 26.4443C14.6666 26.7776 14.4443 26.9998 14.111 26.9998Z" fill="black"/>
</svg>
