<svg width="26" height="26" viewBox="0 0 26 26" fill="none" xmlns="http://www.w3.org/2000/svg">
<path d="M13 22.1147C10.9971 22.1147 9.07618 21.319 7.65989 19.9027C6.2436 18.4864 5.44794 16.5655 5.44794 14.5626C5.44794 12.5597 6.2436 10.6387 7.65989 9.22246C9.07618 7.80616 10.9971 7.0105 13 7.0105H15.6042C15.8114 7.0105 16.0101 7.09281 16.1566 7.23932C16.3031 7.38583 16.3854 7.58455 16.3854 7.79175C16.3854 7.99895 16.3031 8.19766 16.1566 8.34418C16.0101 8.49069 15.8114 8.573 15.6042 8.573H13C11.8154 8.573 10.6574 8.92428 9.67238 9.58243C8.68741 10.2406 7.91971 11.176 7.46636 12.2705C7.01303 13.3649 6.89442 14.5692 7.12552 15.7311C7.35663 16.893 7.92708 17.9602 8.76475 18.7979C9.60241 19.6355 10.6696 20.206 11.8315 20.4371C12.9934 20.6682 14.1977 20.5496 15.2921 20.0962C16.3866 19.6429 17.322 18.8752 17.9802 17.8902C18.6384 16.9052 18.9896 15.7472 18.9896 14.5626C18.9896 14.3554 19.0719 14.1566 19.2185 14.0102C19.3649 13.8636 19.5637 13.7813 19.7709 13.7813C19.978 13.7813 20.1768 13.8636 20.3232 14.0102C20.4698 14.1566 20.5521 14.3554 20.5521 14.5626C20.5494 16.5647 19.7528 18.4839 18.3371 19.8997C16.9214 21.3154 15.0021 22.112 13 22.1147Z" fill="black"/>
<path d="M13 11.6979C12.8974 11.6984 12.7957 11.6784 12.7009 11.6391C12.6061 11.5997 12.52 11.5418 12.4479 11.4688C12.3017 11.3223 12.2195 11.1238 12.2195 10.9167C12.2195 10.7097 12.3017 10.5111 12.4479 10.3646L15.0209 7.7917L12.4479 5.21879C12.3712 5.14727 12.3096 5.06102 12.2669 4.96518C12.2242 4.86935 12.2013 4.7659 12.1994 4.66099C12.1975 4.5561 12.2169 4.4519 12.2562 4.35462C12.2954 4.25735 12.3539 4.16897 12.4282 4.09479C12.5023 4.0206 12.5907 3.96212 12.6879 3.92283C12.7852 3.88354 12.8894 3.86423 12.9943 3.86609C13.0992 3.86794 13.2026 3.8909 13.2985 3.9336C13.3943 3.9763 13.4805 4.03786 13.5521 4.11462L16.6771 7.23962C16.8235 7.38611 16.9056 7.58467 16.9056 7.7917C16.9056 7.99873 16.8235 8.19731 16.6771 8.34379L13.5521 11.4688C13.48 11.5418 13.394 11.5997 13.2992 11.6391C13.2044 11.6784 13.1026 11.6984 13 11.6979Z" fill="black"/>
</svg>
