<svg width="46" height="46" viewBox="0 0 46 46" fill="none" xmlns="http://www.w3.org/2000/svg">
<path d="M23 36.3229C26.1881 35.7092 29.3942 35.6316 32.1228 33.8721C35.2151 31.878 38.3876 29.4439 39.2242 25.8608C40.0831 22.1822 38.0657 18.6462 36.4781 15.2184C34.6937 11.366 33.5029 6.55202 29.5562 4.98708C25.5848 3.41235 21.259 5.79226 17.4168 7.66033C13.9888 9.32704 11.5353 12.053 9.06056 14.9521C5.85034 18.7128 0.73488 21.9402 1.01301 26.8769C1.29484 31.8791 5.75923 36.0832 10.3625 38.0608C14.3908 39.7914 18.6947 37.1516 23 36.3229Z" fill="#FFE4A8"/>
<path d="M34.2145 37.477V12.6011L28.5809 8.52307L31.7677 37.477H34.2145Z" fill="white" stroke="black" stroke-width="0.00666667"/>
<path d="M31.7677 37.477V12.6011L26.0585 4.44507H7.70747V37.477H31.7677Z" fill="#FFE4A8" stroke="black" stroke-width="0.00666667"/>
<path d="M34.2145 12.6011L26.0585 4.44507V12.6011H34.2145Z" fill="#FFE4A8" stroke="black" stroke-width="0.00666667"/>
<path d="M29.117 18.3103H12.805C12.4672 18.3103 12.1933 18.0364 12.1933 17.6986C12.1933 17.3608 12.4672 17.0869 12.805 17.0869H29.117C29.4548 17.0869 29.7287 17.3608 29.7287 17.6986C29.7287 18.0364 29.4548 18.3103 29.117 18.3103Z" fill="black" stroke="black" stroke-width="0.00666667"/>
<path d="M29.117 21.5726H12.805C12.4672 21.5726 12.1933 21.2987 12.1933 20.9609C12.1933 20.6231 12.4672 20.3492 12.805 20.3492H29.117C29.4548 20.3492 29.7287 20.6231 29.7287 20.9609C29.7287 21.2987 29.4548 21.5726 29.117 21.5726Z" fill="black" stroke="black" stroke-width="0.00666667"/>
<path d="M20.961 24.8351H12.805C12.4672 24.8351 12.1933 24.5612 12.1933 24.2234C12.1933 23.8856 12.4672 23.6117 12.805 23.6117H20.961C21.2988 23.6117 21.5727 23.8856 21.5727 24.2234C21.5727 24.5612 21.2988 24.8351 20.961 24.8351Z" fill="black" stroke="black" stroke-width="0.00666667"/>
<path d="M30.1365 25.2429V41.555C34.6411 41.555 38.2925 37.9036 38.2925 33.399C38.2925 28.8945 34.6411 25.2429 30.1365 25.2429Z" fill="#DBFFCE" stroke="black" stroke-width="0.00666667"/>
<path d="M30.1365 25.2429C33.2897 25.2429 35.8457 28.8944 35.8457 33.3989C35.8457 37.9035 33.2897 41.555 30.1365 41.555C25.632 41.555 21.9805 37.9036 21.9805 33.399C21.9805 28.8945 25.632 25.2429 30.1365 25.2429Z" fill="#BFFFA8" stroke="black" stroke-width="0.00666667"/>
<path d="M34.2145 32.1755H31.36V29.3209C31.36 28.6453 30.8122 28.0975 30.1366 28.0975C29.461 28.0975 28.9132 28.6453 28.9132 29.3209V32.1755H26.0586C25.383 32.1755 24.8352 32.7233 24.8352 33.3989C24.8352 34.0745 25.383 34.6223 26.0586 34.6223H28.9132V37.4769C28.9132 38.1525 29.461 38.7003 30.1366 38.7003C30.8122 38.7003 31.36 38.1525 31.36 37.4769V34.6223H34.2146C34.8902 34.6223 35.438 34.0745 35.438 33.3989C35.438 32.7233 34.8901 32.1755 34.2145 32.1755Z" fill="white" stroke="black" stroke-width="0.00666667"/>
<path d="M20.3498 36.8653H8.31916V5.05675C11.1133 5.05675 22.6509 5.05675 25.4468 5.05675V12.6011C25.4468 12.9389 25.7207 13.2128 26.0585 13.2128H33.6028V23.6122C33.6028 23.95 33.8767 24.2239 34.2145 24.2239C34.5523 24.2239 34.8262 23.95 34.8262 23.6122V12.6011C34.8262 12.4388 34.7617 12.2833 34.647 12.1686L26.491 4.01254C26.3763 3.89784 26.2207 3.83337 26.0585 3.83337H7.91351C7.60685 3.83337 7.50353 3.83337 7.34039 3.95571C7.1863 4.07131 7.09571 4.2525 7.09571 4.44506V37.4769C7.09571 37.8148 7.36958 38.0886 7.7074 38.0886H20.3498C20.6876 38.0886 20.9614 37.8148 20.9614 37.4769C20.9614 37.1392 20.6876 36.8653 20.3498 36.8653ZM26.6702 5.92187L32.7377 11.9894H26.6702V5.92187Z" fill="black" stroke="black" stroke-width="0.00666667"/>
<path d="M30.1365 24.6312C25.3019 24.6312 21.3688 28.5644 21.3688 33.3989C21.3688 38.2335 25.3019 42.1667 30.1365 42.1667C34.9711 42.1667 38.9042 38.2336 38.9042 33.399C38.9042 28.5644 34.9711 24.6312 30.1365 24.6312ZM30.1365 40.9433C25.9765 40.9433 22.5922 37.559 22.5922 33.399C22.5922 29.239 25.9765 25.8547 30.1365 25.8547C34.2965 25.8547 37.6808 29.239 37.6808 33.399C37.6808 37.559 34.2965 40.9433 30.1365 40.9433Z" fill="black" stroke="black" stroke-width="0.00666667"/>
<path d="M34.2145 31.5638H31.9716V29.321C31.9716 28.3091 31.1485 27.4858 30.1365 27.4858C29.1246 27.4858 28.3014 28.3091 28.3014 29.321V31.5638H26.0585C25.0466 31.5638 24.2234 32.3871 24.2234 33.399C24.2234 34.4108 25.0466 35.2341 26.0585 35.2341H28.3014V37.477C28.3014 38.4889 29.1246 39.3121 30.1365 39.3121C31.1485 39.3121 31.9716 38.4889 31.9716 37.477V35.2341H34.2145C35.2265 35.2341 36.0497 34.4108 36.0497 33.399C36.0497 32.3871 35.2265 31.5638 34.2145 31.5638ZM34.2145 34.0107H31.36C31.0222 34.0107 30.7483 34.2845 30.7483 34.6224V37.477C30.7483 37.8143 30.4739 38.0887 30.1366 38.0887C29.7992 38.0887 29.5249 37.8142 29.5249 37.477V34.6224C29.5249 34.2845 29.251 34.0107 28.9132 34.0107H26.0586C25.7212 34.0107 25.4469 33.7362 25.4469 33.399C25.4469 33.0617 25.7213 32.7873 26.0586 32.7873H28.9132C29.251 32.7873 29.5249 32.5134 29.5249 32.1756V29.321C29.5249 28.9837 29.7993 28.7093 30.1366 28.7093C30.474 28.7093 30.7483 28.9838 30.7483 29.321V32.1756C30.7483 32.5134 31.0222 32.7873 31.36 32.7873H34.2146C34.552 32.7873 34.8263 33.0618 34.8263 33.399C34.8262 33.7362 34.5519 34.0107 34.2145 34.0107Z" fill="black" stroke="black" stroke-width="0.00666667"/>
</svg>
