<svg width="60" height="60" viewBox="0 0 60 60" fill="none" xmlns="http://www.w3.org/2000/svg">
<g filter="url(#filter0_d_90_5039)">
<rect x="6" y="2" width="48" height="48" rx="12" fill="white" shape-rendering="crispEdges"/>
<path fill-rule="evenodd" clip-rule="evenodd" d="M15.625 16.4166C15.625 15.5344 16.3401 14.8193 17.2222 14.8193H42.7778C43.6599 14.8193 44.375 15.5344 44.375 16.4166C44.375 17.2987 43.6599 18.0138 42.7778 18.0138H17.2222C16.3401 18.0138 15.625 17.2987 15.625 16.4166ZM15.625 25.9999C15.625 25.1177 16.3401 24.4027 17.2222 24.4027H42.7778C43.6599 24.4027 44.375 25.1177 44.375 25.9999C44.375 26.882 43.6599 27.5971 42.7778 27.5971H17.2222C16.3401 27.5971 15.625 26.882 15.625 25.9999ZM15.625 35.5832C15.625 34.7011 16.3401 33.986 17.2222 33.986H42.7778C43.6599 33.986 44.375 34.7011 44.375 35.5832C44.375 36.4654 43.6599 37.1804 42.7778 37.1804H17.2222C16.3401 37.1804 15.625 36.4654 15.625 35.5832Z" fill="black"/>
</g>
<defs>
<filter id="filter0_d_90_5039" x="0" y="0" width="60" height="60" filterUnits="userSpaceOnUse" color-interpolation-filters="sRGB">
<feFlood flood-opacity="0" result="BackgroundImageFix"/>
<feColorMatrix in="SourceAlpha" type="matrix" values="0 0 0 0 0 0 0 0 0 0 0 0 0 0 0 0 0 0 127 0" result="hardAlpha"/>
<feOffset dy="4"/>
<feGaussianBlur stdDeviation="3"/>
<feComposite in2="hardAlpha" operator="out"/>
<feColorMatrix type="matrix" values="0 0 0 0 0 0 0 0 0 0 0 0 0 0 0 0 0 0 0.25 0"/>
<feBlend mode="normal" in2="BackgroundImageFix" result="effect1_dropShadow_90_5039"/>
<feBlend mode="normal" in="SourceGraphic" in2="effect1_dropShadow_90_5039" result="shape"/>
</filter>
</defs>
</svg>
