<svg width="49" height="49" viewBox="0 0 49 49" fill="none" xmlns="http://www.w3.org/2000/svg">
<path d="M24.2733 46.8102C30.9552 46.2274 34.6237 39.9153 38.6111 34.799C42.3194 30.0409 46.5421 25.1854 45.6946 19.3243C44.7662 12.9037 40.4567 7.03138 34.2141 4.39013C28.1495 1.82415 21.401 3.79454 15.4095 6.51046C9.39052 9.23882 3.58312 13.0029 1.7799 19.0923C-0.119926 25.5079 1.90921 32.3451 6.19523 37.6266C10.5811 43.0312 17.1107 47.435 24.2733 46.8102Z" fill="#FFE4A8"/>
<path d="M30.4888 9.52767V12.9304C30.4888 13.3387 30.2166 13.6109 29.9443 13.6109H17.6943C17.354 13.6109 17.0819 13.2706 17.0819 12.9304V9.52767H14.5638C13.2707 9.52767 12.2499 10.7526 12.2499 12.2499V41.5137C12.2499 43.0109 13.2707 44.2359 14.5638 44.2359H33.0749C34.3679 44.2359 35.3888 43.0109 35.3888 41.5137V12.2498C35.3888 10.7526 34.3679 9.52759 33.0749 9.52759L30.4888 9.52767Z" fill="#FFE4A8"/>
<path d="M12.2499 41.5136V12.2498C12.2499 10.7526 13.2707 9.52759 14.5638 9.52759H12.9305C11.4332 9.52759 10.2083 10.7526 10.2083 12.2498V41.5136C10.2083 43.0109 11.4332 44.2358 12.9305 44.2358H14.5638C13.2707 44.2358 12.2499 43.0109 12.2499 41.5136Z" fill="white"/>
<path d="M34.7081 9.52783H33.0748C34.3679 9.52783 35.3887 10.7528 35.3887 12.2501V41.5139C35.3887 43.0111 34.3679 44.2361 33.0748 44.2361H34.7081C36.2054 44.2361 37.4304 43.0111 37.4304 41.5139V12.25C37.4304 10.7528 36.2053 9.52783 34.7081 9.52783Z" fill="#FFE4A8"/>
<path d="M36.7498 9.52783H35.1165C36.4095 9.52783 37.4304 10.7528 37.4304 12.2501V41.5139C37.4304 43.0111 36.4095 44.2361 35.1165 44.2361H36.7498C38.247 44.2361 39.472 43.0111 39.472 41.5139V12.25C39.472 10.7528 38.247 9.52783 36.7498 9.52783Z" fill="#FFE4A8"/>
<path d="M27.2221 7.4859V6.12479C27.2221 5.37616 26.6096 4.76367 25.8609 4.76367H21.7776C21.029 4.76367 20.4165 5.37616 20.4165 6.12479V7.4859H17.6942C17.2859 7.4859 17.0137 7.75809 17.0137 8.16642V12.9303C17.0137 13.3386 17.354 13.6108 17.6942 13.6108H29.9442C30.3525 13.6108 30.6247 13.2705 30.6247 12.9303V8.1665C30.6247 7.75818 30.3525 7.48598 29.9442 7.48598L27.2221 7.4859Z" fill="#FFE4A8"/>
<path d="M27.2221 7.4859V6.12479C27.2221 5.37616 26.6096 4.76367 25.8609 4.76367H21.7776C21.029 4.76367 20.4165 5.37616 20.4165 6.12479V7.4859H17.6942C17.2859 7.4859 17.0137 7.75809 17.0137 8.16642V12.9303C17.0137 13.3386 17.354 13.6108 17.6942 13.6108H27.9026C28.3109 13.6108 28.5831 13.2705 28.5831 12.9303V8.1665C28.5831 7.75818 28.3109 7.48598 27.9026 7.48598L27.2221 7.4859Z" fill="#FFE4A8"/>
<path d="M34.7081 44.9165H12.9305C11.0249 44.9165 9.52771 43.4193 9.52771 41.5138V23.1388C9.52771 22.7304 9.7999 22.4582 10.2082 22.4582C10.6166 22.4582 10.8887 22.7304 10.8887 23.1388V41.5137C10.8887 42.6707 11.7734 43.5553 12.9304 43.5553H34.7081C35.865 43.5553 36.7497 42.6707 36.7497 41.5137V12.2499C36.7497 11.093 35.865 10.2083 34.7081 10.2083H31.3053V12.9305C31.3053 13.6791 30.6928 14.2916 29.9442 14.2916H17.6943C16.9457 14.2916 16.3332 13.6791 16.3332 12.9305V10.2083H12.9305C11.7735 10.2083 10.8888 11.093 10.8888 12.2499V17.6944C10.8888 18.1027 10.6166 18.3749 10.2083 18.3749C9.79998 18.3749 9.52779 18.1027 9.52779 17.6944V12.2499C9.52779 10.3443 11.025 8.84717 12.9305 8.84717H17.0139C17.4222 8.84717 17.6944 9.11936 17.6944 9.52769V12.9304H29.9444V9.52777C29.9444 9.11944 30.2166 8.84725 30.6249 8.84725H34.7082C36.6138 8.84725 38.111 10.3445 38.111 12.25V41.5138C38.1109 43.4193 36.6137 44.9165 34.7081 44.9165Z" fill="black"/>
<path d="M10.8887 20.4166C10.8887 20.0083 10.6166 19.7361 10.2082 19.7361C9.7999 19.7361 9.52771 20.0083 9.52771 20.4166C9.52771 20.8249 9.7999 21.0971 10.2082 21.0971C10.6166 21.0971 10.8887 20.8249 10.8887 20.4166Z" fill="black"/>
<path d="M29.9443 28.5831C29.9443 24.0914 26.7457 20.4165 22.7985 20.4165C18.8513 20.4165 15.6527 24.0915 15.6527 28.5831C15.6527 33.0747 18.8513 36.7497 22.7985 36.7497C26.7457 36.7497 29.9443 33.0748 29.9443 28.5831Z" fill="#E4667F"/>
<path d="M23.8193 20.4165C23.6151 20.4165 23.479 20.4165 23.2748 20.4165C27.0179 20.6887 29.9443 24.2276 29.9443 28.5831C29.9443 32.9387 27.0179 36.4095 23.2748 36.7497C23.479 36.7497 23.6151 36.7497 23.8193 36.7497C28.311 36.7497 31.9859 33.0747 31.9859 28.5831C31.9859 24.0915 28.311 20.4165 23.8193 20.4165Z" fill="#DD3859"/>
<path d="M17.6943 14.2916C16.9457 14.2916 16.3332 13.6791 16.3332 12.9305V8.1666C16.3332 7.41797 16.9457 6.80548 17.6943 6.80548H19.7359V6.12488C19.7359 5.03596 20.6206 4.08325 21.7776 4.08325H25.8609C27.0179 4.08325 27.9026 4.96793 27.9026 6.12488V6.8054H29.9442C30.6928 6.8054 31.3053 7.41789 31.3053 8.16652V12.9304C31.3053 13.679 30.6928 14.2915 29.9442 14.2915L17.6943 14.2916ZM17.6943 8.1666V12.9305H29.9443V8.1666H27.222C26.8137 8.1666 26.5415 7.89441 26.5415 7.48608V6.12488C26.5415 5.78459 26.2693 5.44437 25.861 5.44437H21.7777C21.3693 5.44437 21.0971 5.71656 21.0971 6.12488V7.486C21.0971 7.89433 20.8249 8.16652 20.4166 8.16652L17.6943 8.1666Z" fill="black"/>
<path d="M23.8193 37.4303C18.9193 37.4303 14.9721 33.4831 14.9721 28.5831C14.9721 23.6831 18.9193 19.7358 23.8193 19.7358C28.7193 19.7358 32.6665 23.6831 32.6665 28.5831C32.6665 33.4831 28.7193 37.4303 23.8193 37.4303ZM23.8193 21.097C19.6679 21.097 16.3332 24.4317 16.3332 28.5831C16.3332 32.7344 19.6679 36.0691 23.8193 36.0691C27.9707 36.0691 31.3054 32.7344 31.3054 28.5831C31.3054 24.4317 27.9707 21.097 23.8193 21.097Z" fill="black"/>
<path d="M28.5832 29.2636H19.0555C18.6471 29.2636 18.3749 28.9914 18.3749 28.5831C18.3749 28.1748 18.6471 27.9026 19.0555 27.9026H28.5832C28.9915 27.9026 29.2637 28.1748 29.2637 28.5831C29.2637 28.9914 28.9915 29.2636 28.5832 29.2636Z" fill="black"/>
</svg>
