<svg width="46" height="40" viewBox="17 0 26 40" fill="none" xmlns="http://www.w3.org/2000/svg">
<path d="M13.2098 26.5217H32.7663L37.6554 33.4783L36.1887 35.6522H22.0102H10.2763L7.83179 34.3478L13.2098 26.5217Z" fill="#FAFAFA"/>
<path d="M37.7874 32.4574C37.7723 32.4284 37.7548 32.4003 37.7352 32.3735L28.1376 19.3137V6.54033H29.0147C29.4207 6.54033 29.7497 6.24769 29.7497 5.88675V3.40309C29.7497 3.04215 29.4206 2.74951 29.0147 2.74951H16.9613C16.5553 2.74951 16.2263 3.04215 16.2263 3.40309V5.88675C16.2263 6.24775 16.5554 6.54033 16.9613 6.54033H17.9371V19.1228L8.23982 32.3746C8.22042 32.4011 8.20322 32.4288 8.18828 32.4576C7.71564 33.3697 7.73153 34.2913 8.2317 34.9861C8.73362 35.683 9.67305 36.0828 10.809 36.0828H35.167C36.3031 36.0828 37.2425 35.683 37.7444 34.9859C38.2444 34.2912 38.2602 33.3694 37.7874 32.4574ZM17.6962 5.23317V4.05667H28.2798V5.23317H27.4026H18.6721H17.6962ZM36.5063 34.2812C36.2767 34.6001 35.8011 34.7757 35.167 34.7757H10.809C10.1749 34.7757 9.69925 34.6 9.46967 34.2812C9.24792 33.9731 9.25992 33.5356 9.50261 33.0455L11.4252 30.4184L11.743 29.8509C11.743 29.4161 12.2319 29.4161 12.2319 29.4161L12.3817 29.1112L19.2882 19.6734C19.3658 19.5674 19.4071 19.4435 19.4071 19.317V6.54033H26.6677V19.5083C26.6677 19.6353 26.7093 19.7595 26.7874 19.8659L36.4735 33.046C36.716 33.5359 36.728 33.9733 36.5063 34.2812Z" fill="black"/>
<path d="M21.1015 10.3965C20.6956 10.3965 20.3666 10.6891 20.3666 11.0501V18.3703C20.3666 18.7313 20.6957 19.0239 21.1015 19.0239C21.5075 19.0239 21.8365 18.7313 21.8365 18.3703V11.0501C21.8366 10.6891 21.5075 10.3965 21.1015 10.3965Z" fill="black"/>
<path d="M21.1015 6.94336C20.6956 6.94336 20.3666 7.236 20.3666 7.59694V9.08027C20.3666 9.44128 20.6957 9.73385 21.1015 9.73385C21.5075 9.73385 21.8365 9.44121 21.8365 9.08027V7.59694C21.8366 7.23594 21.5075 6.94336 21.1015 6.94336Z" fill="black"/>
<line x1="13.2097" y1="26.3565" x2="32.7662" y2="26.3565" stroke="black" stroke-width="1.2"/>
</svg>
