<svg width="20" height="14" viewBox="0 0 20 14" fill="none" xmlns="http://www.w3.org/2000/svg">
<path d="M19.2554 0.694444C19.2554 0.510266 19.1829 0.333632 19.054 0.203398C18.9251 0.0731646 18.7502 0 18.5679 0H0.692859C0.510523 0 0.335655 0.0731646 0.206723 0.203398C0.0777921 0.333632 0.00535931 0.510266 0.00535931 0.694444V12.5C-0.00178644 12.5507 -0.00178644 12.6021 0.00535931 12.6528C0.00223307 12.6897 0.00223307 12.7269 0.00535931 12.7639C0.00535931 12.8056 0.0534842 12.8333 0.0741092 12.8681C0.099995 12.9103 0.129931 12.9498 0.163484 12.9861C0.19682 13.0124 0.233906 13.0335 0.273484 13.0486L0.355984 13.1042C0.460705 13.158 0.575516 13.1887 0.692859 13.1944H18.5679C18.6546 13.1917 18.7405 13.1753 18.8222 13.1458L18.9047 13.0903C18.9443 13.0752 18.9814 13.0541 19.0147 13.0278C19.0483 12.9915 19.0782 12.9519 19.1041 12.9097C19.1041 12.9097 19.1522 12.8472 19.1729 12.8056C19.176 12.7686 19.176 12.7314 19.1729 12.6944C19.2127 12.6357 19.2408 12.5697 19.2554 12.5V0.694444ZM1.38036 1.95139L6.12411 5.10417L1.38036 10.6597V1.95139ZM9.63036 5.76389L3.03036 1.38889H16.2304L9.63036 5.76389ZM7.28598 5.875L9.25223 7.18056C9.36449 7.25523 9.49595 7.29502 9.63036 7.29502C9.76477 7.29502 9.89623 7.25523 10.0085 7.18056L11.9747 5.875L17.0622 11.8056H2.19848L7.28598 5.875ZM13.1366 5.10417L17.8804 1.95139V10.6389L13.1366 5.10417Z" fill="black"/>
</svg>
