<svg width="26" height="26" viewBox="0 0 26 26" fill="none" xmlns="http://www.w3.org/2000/svg">
<path fill-rule="evenodd" clip-rule="evenodd" d="M13 24.4706C6.67435 24.4706 1.52941 19.3257 1.52941 13C1.52941 6.67435 6.67435 1.52941 13 1.52941C19.3257 1.52941 24.4706 6.67435 24.4706 13C24.4706 19.3257 19.3257 24.4706 13 24.4706ZM13 0C5.83165 0 0 5.83165 0 13C0 20.1683 5.83165 26 13 26C20.1683 26 26 20.1683 26 13C26 5.83165 20.1683 0 13 0ZM13.0008 18.3514L13.7655 18.3529H13.0008L13.0008 18.3514ZM10.192 5.54734C11.3253 4.67099 12.7874 4.37734 14.2098 4.7444C15.7652 5.14663 17.03 6.41146 17.4322 7.96687C17.7488 9.19193 17.5775 10.4491 16.952 11.5075C16.3356 12.5505 15.3109 13.3213 14.1409 13.6211C13.9543 13.6685 13.7647 13.8215 13.7647 14.0524V15.2943H12.2353V14.0524C12.2353 13.1577 12.8623 12.3716 13.7617 12.1391C14.5417 11.9403 15.2238 11.4264 15.6352 10.7305C16.0527 10.0224 16.1659 9.17663 15.9518 8.34922C15.6856 7.32452 14.8521 6.49099 13.8274 6.22487C12.8669 5.97863 11.8835 6.17134 11.128 6.7571C10.374 7.34134 9.94118 8.22381 9.94118 9.17663H8.41176C8.41176 7.74663 9.06024 6.42371 10.192 5.54734ZM13 17.2391C12.4348 17.2391 11.8696 17.8043 11.8696 18.3696C11.8696 18.9348 12.4348 19.5 13 19.5C13.5652 19.5 14.1304 18.9348 14.1304 18.3696C14.1304 17.8043 13.5652 17.2391 13 17.2391Z" fill="black"/>
</svg>
