<svg width="27" height="28" viewBox="0 0 27 28" fill="none" xmlns="http://www.w3.org/2000/svg">
<path d="M12.1187 0.111084C11.5238 0.111077 10.9496 0.329228 10.5048 0.724219C10.06 1.11921 9.77547 1.66361 9.70514 2.25431L11.7739 2.50067C11.7839 2.41627 11.8246 2.33848 11.8881 2.28204C11.9517 2.22559 12.0337 2.19442 12.1187 2.19442V0.111084ZM14.8604 0.111084H12.1187V2.19442H14.8604V0.111084ZM17.2739 2.25431C17.2036 1.66361 16.9191 1.11921 16.4743 0.724219C16.0294 0.329228 15.4552 0.111077 14.8604 0.111084V2.19442C14.9453 2.19442 15.0274 2.22559 15.0909 2.28204C15.1545 2.33848 15.1951 2.41627 15.2051 2.50067L17.2739 2.25431ZM17.4855 4.03209L17.2739 2.25431L15.2051 2.50067L15.4166 4.27845L17.4855 4.03209ZM21.7694 4.8498L20.1178 5.55813L20.9388 7.47272L22.5904 6.76438L21.7694 4.8498ZM24.8322 5.86837C24.5348 5.3532 24.0588 4.96499 23.4943 4.77727C22.9298 4.58955 22.3161 4.61535 21.7694 4.8498L22.5904 6.76438C22.6685 6.73085 22.7562 6.72732 22.8369 6.75413C22.9175 6.78095 22.9856 6.83642 23.0281 6.91004L24.8322 5.86837ZM26.2031 8.24268L24.8322 5.86837L23.0281 6.91004L24.3989 9.28435L26.2031 8.24268ZM25.5538 11.4045C26.0302 11.0482 26.3594 10.5296 26.479 9.94693C26.5987 9.36421 26.5005 8.75785 26.2031 8.24268L24.3989 9.28435C24.4414 9.35796 24.4554 9.44461 24.4383 9.52786C24.4212 9.61112 24.3741 9.68521 24.306 9.73608L25.5538 11.4045ZM23.994 12.5708L25.5538 11.4045L24.306 9.73608L22.7465 10.9024L23.994 12.5708ZM25.5538 16.5955L23.994 15.4291L22.7465 17.0975L24.306 18.2639L25.5538 16.5955ZM26.2031 19.7573C26.5005 19.2421 26.5987 18.6357 26.479 18.053C26.3594 17.4703 26.0302 16.9517 25.5538 16.5955L24.306 18.2639C24.3741 18.3147 24.4212 18.3888 24.4383 18.4721C24.4554 18.5553 24.4414 18.642 24.3989 18.7156L26.2031 19.7573ZM24.8322 22.1316L26.2031 19.7573L24.3989 18.7156L23.0281 21.0899L24.8322 22.1316ZM21.7694 23.1501C22.3161 23.3846 22.9298 23.4104 23.4943 23.2227C24.0588 23.035 24.5348 22.6467 24.8322 22.1316L23.0281 21.0899C22.9855 21.1635 22.9175 21.2189 22.8369 21.2458C22.7562 21.2726 22.6685 21.2689 22.5904 21.2354L21.7694 23.1501ZM20.1178 22.4418L21.7694 23.1501L22.5904 21.2354L20.939 20.5272L20.1178 22.4418ZM17.2739 25.7456L17.4854 23.9679L15.4168 23.7215L15.2051 25.4993L17.2739 25.7456ZM14.8604 27.8889C15.4552 27.8889 16.0294 27.6707 16.4743 27.2757C16.9191 26.8807 17.2036 26.3363 17.2739 25.7456L15.2051 25.4993C15.1951 25.5837 15.1545 25.6615 15.0909 25.7179C15.0274 25.7744 14.9453 25.8055 14.8604 25.8055V27.8889ZM12.1187 27.8889H14.8604V25.8055H12.1187V27.8889ZM9.70514 25.7456C9.77547 26.3363 10.06 26.8807 10.5048 27.2757C10.9496 27.6707 11.5238 27.8889 12.1187 27.8889V25.8055C12.0337 25.8055 11.9517 25.7744 11.8881 25.7179C11.8246 25.6615 11.7839 25.5837 11.7739 25.4993L9.70514 25.7456ZM9.52945 24.2692L9.70514 25.7456L11.7739 25.4993L11.5982 24.0229L9.52945 24.2692ZM5.75132 20.651L4.38865 21.2354L5.20966 23.1501L6.57233 22.5658L5.75132 20.651ZM4.38865 21.2354C4.31055 21.2689 4.22272 21.2726 4.14209 21.2457C4.06147 21.2189 3.99347 21.1635 3.95098 21.0899L2.14681 22.1316C2.44424 22.6467 2.92027 23.035 3.48474 23.2227C4.04922 23.4104 4.66293 23.3846 5.20966 23.1501L4.38865 21.2354ZM3.95098 21.0899L2.58014 18.7156L0.775975 19.7573L2.14681 22.1316L3.95098 21.0899ZM2.58014 18.7156C2.53765 18.642 2.52363 18.5553 2.54075 18.4721C2.55787 18.3888 2.60493 18.3147 2.67302 18.2639L1.42528 16.5955C0.948882 16.9517 0.619673 17.4703 0.500008 18.053C0.380343 18.6357 0.478531 19.2421 0.775975 19.7573L2.58014 18.7156ZM2.67302 18.2639L3.73761 17.4679L2.48969 15.7995L1.42528 16.5955L2.67302 18.2639ZM1.42528 11.4045L2.48986 12.2007L3.73761 10.5323L2.67302 9.73608L1.42528 11.4045ZM0.775975 8.24268C0.478531 8.75785 0.380343 9.36421 0.500008 9.94693C0.619673 10.5296 0.948882 11.0482 1.42528 11.4045L2.67302 9.73608C2.60493 9.68521 2.55787 9.61112 2.54075 9.52786C2.52363 9.44461 2.53765 9.35796 2.58014 9.28435L0.775975 8.24268ZM2.14681 5.86837L0.775975 8.24268L2.58014 9.28435L3.95098 6.91004L2.14681 5.86837ZM5.20966 4.8498C4.66293 4.61535 4.04922 4.58955 3.48474 4.77727C2.92027 4.96499 2.44424 5.3532 2.14681 5.86837L3.95098 6.91004C3.99347 6.83646 4.06147 6.78102 4.14209 6.7542C4.22272 6.72739 4.31055 6.73108 4.38865 6.76456L5.20966 4.8498ZM6.57233 5.43417L5.20966 4.8498L4.38865 6.76456L5.75132 7.34893L6.57233 5.43417ZM9.70514 2.25431L9.52945 3.7307L11.5982 3.97706L11.7739 2.50067L9.70514 2.25431ZM9.40063 7.03765C10.4558 6.44285 11.4301 5.38817 11.5982 3.97706L9.52945 3.7307C9.46313 4.28782 9.04872 4.84459 8.37754 5.22306L9.40063 7.03765ZM5.75132 7.34893C7.01591 7.89129 8.36504 7.6215 9.40063 7.03765L8.37754 5.22306C7.73448 5.58556 7.07875 5.65136 6.57233 5.43417L5.75132 7.34893ZM5.3298 14C5.3298 12.7673 4.88743 11.3922 3.73761 10.5323L2.48986 12.2007C2.96174 12.5536 3.24646 13.208 3.24646 14H5.3298ZM9.40063 20.9623C8.36504 20.3784 7.01591 20.1087 5.75132 20.651L6.57233 22.5658C7.07875 22.3486 7.73448 22.4146 8.37754 22.7772L9.40063 20.9623ZM3.73761 17.4679C4.88761 16.608 5.3298 15.2326 5.3298 14H3.24646C3.24646 14.7922 2.96157 15.4467 2.48969 15.7995L3.73761 17.4679ZM17.397 20.8663C16.4359 21.4389 15.5711 22.4257 15.4168 23.7215L17.4854 23.9679C17.5425 23.4878 17.888 22.9988 18.4633 22.6559L17.397 20.8663ZM20.939 20.5272C19.7074 19.9991 18.3923 20.2732 17.397 20.8663L18.4633 22.6559C19.0505 22.306 19.6564 22.2441 20.1178 22.4418L20.939 20.5272ZM11.5982 24.0229C11.4301 22.6119 10.4558 21.5573 9.40063 20.9623L8.37754 22.7772C9.04872 23.1555 9.46313 23.7121 9.52945 24.2692L11.5982 24.0229ZM21.302 14C21.302 15.1092 21.7183 16.3288 22.7465 17.0975L23.994 15.4291C23.6239 15.1524 23.3854 14.6368 23.3854 14H21.302ZM22.7465 10.9024C21.7183 11.6712 21.302 12.8906 21.302 14H23.3854C23.3854 13.3632 23.6239 12.8475 23.994 12.5708L22.7465 10.9024ZM17.397 7.13365C18.3923 7.72671 19.7074 8.00084 20.9388 7.47272L20.1178 5.55813C19.6564 5.75605 19.0505 5.69372 18.4633 5.3439L17.397 7.13365ZM15.4166 4.27845C15.5709 5.57428 16.4359 6.56108 17.397 7.13365L18.4633 5.3439C17.888 5.00119 17.5426 4.5123 17.4855 4.03209L15.4166 4.27845Z" fill="black"/>
<path d="M17.1666 13.9999C17.1666 15.7488 15.7488 17.1666 13.9999 17.1666C12.251 17.1666 10.8333 15.7488 10.8333 13.9999C10.8333 12.251 12.251 10.8333 13.9999 10.8333C15.7488 10.8333 17.1666 12.251 17.1666 13.9999Z" stroke="black" stroke-width="2" stroke-linecap="round" stroke-linejoin="round"/>
</svg>
